# xmcd
#
# Track frame offsets: 
#        300
#        11990
#        27805
#        40655
#        52127
#        73732
#        88782
#        108005
#        128522
#        151690
#
# Disc length: 2178 seconds
#
# Revision: 3
# Processed by: cddbd v1.5.2PL0 Copyright (c) Steve Scherf et al.
# Submitted via: ExactAudioCopy v0.99pb5
#
DISCID=78087e0a
DTITLE=Kenny Rogers - Share Your Love
DYEAR=1981
DGENRE=Country
TTITLE0=Blaze Of Glory
TTITLE1=I Don't Need You
TTITLE2=The Good Life
TTITLE3=Make Me Wonder If I Ever Said Goodbye
TTITLE4=Through The Years
TTITLE5=Share Your Love With Me
TTITLE6=So In Love With You
TTITLE7=Goin' Back To Alabama
TTITLE8=Without You In My Life
TTITLE9=Greybeard
EXTD=
EXTT0=
EXTT1=
EXTT2=
EXTT3=
EXTT4=
EXTT5=
EXTT6=
EXTT7=
EXTT8=
EXTT9=
PLAYORDER=
